<svg width="153" height="28" viewBox="0 0 153 28" fill="none" xmlns="http://www.w3.org/2000/svg">
<path d="M10.075 27.28C7.625 27.28 5.735 27.0817 4.405 26.685C3.075 26.2883 2.095 25.6467 1.465 24.76C0.881667 23.9433 0.52 22.905 0.38 21.645C0.24 20.385 0.17 18.5067 0.17 16.01V2.92H7.17V17.41C7.17 18.2733 7.19333 19.1017 7.24 19.895C7.28667 20.525 7.39167 20.98 7.555 21.26C7.71833 21.54 7.99833 21.715 8.395 21.785C8.745 21.8783 9.305 21.925 10.075 21.925H10.88C11.0667 21.925 11.2767 21.9017 11.51 21.855V27.245C11.3467 27.2683 11.1133 27.28 10.81 27.28H10.075ZM12.98 2.92H19.98V16.01C19.98 18.2967 19.9333 20.0233 19.84 21.19C19.7467 22.3567 19.49 23.3367 19.07 24.13C18.6033 25.04 17.8917 25.74 16.935 26.23C15.9783 26.72 14.66 27.035 12.98 27.175V2.92ZM37.39 14.015C36.9467 13.9917 36.34 13.9333 35.57 13.84C34.1234 13.7 32.9567 13.63 32.07 13.63H30.915V8.87C32.5717 8.87 34.1467 8.98667 35.64 9.22L37.39 9.535V14.015ZM32.315 21.575C32.315 21.225 32.2567 21.0033 32.14 20.91C32.0234 20.8167 31.7784 20.7467 31.405 20.7L27.625 20.175C26.6917 20.035 25.9334 19.8133 25.35 19.51C24.79 19.2067 24.37 18.7983 24.09 18.285C23.81 17.8417 23.6234 17.305 23.53 16.675C23.4367 16.045 23.39 15.2633 23.39 14.33C23.39 12.4167 23.9617 11.0167 25.105 10.13C26.0617 9.43 27.5084 9.02167 29.445 8.905V14.4C29.445 14.75 29.4917 14.9833 29.585 15.1C29.6784 15.1933 29.97 15.275 30.46 15.345L34.66 15.905C35.2667 15.975 35.7917 16.1033 36.235 16.29C36.6784 16.4533 37.0517 16.71 37.355 17.06C38.0317 17.8067 38.37 19.2417 38.37 21.365C38.37 23.605 37.7984 25.1683 36.655 26.055C35.6517 26.8017 34.205 27.1983 32.315 27.245V21.575ZM30.845 27.28C28.9784 27.2567 27.345 27.14 25.945 26.93L23.95 26.615V22.135C24.8834 22.2283 26.1434 22.3217 27.73 22.415C28.6167 22.4617 29.2467 22.485 29.62 22.485H30.845V27.28ZM48.9767 16.325H51.4267C51.4267 15.0183 51.2983 14.1783 51.0417 13.805C50.9017 13.595 50.715 13.4667 50.4817 13.42C50.2483 13.35 49.91 13.315 49.4667 13.315H48.9767V8.87H49.4667C51.4733 8.87 53.0133 9.03333 54.0867 9.36C55.1833 9.68667 55.9883 10.2233 56.5017 10.97C56.9683 11.6233 57.2483 12.4633 57.3417 13.49C57.4583 14.5167 57.5167 16.0567 57.5167 18.11V19.51H48.9767V16.325ZM50.1667 27.28C48.02 27.28 46.3283 27.105 45.0917 26.755C43.8783 26.3817 42.9683 25.7983 42.3617 25.005C41.825 24.305 41.475 23.4417 41.3117 22.415C41.1483 21.365 41.0667 19.93 41.0667 18.11C41.0667 16.43 41.125 15.1 41.2417 14.12C41.3583 13.1167 41.6033 12.265 41.9767 11.565C42.3967 10.795 43.0383 10.2 43.9017 9.78C44.7883 9.33667 45.99 9.05667 47.5067 8.94V19.51C47.5067 20.3033 47.5417 20.875 47.6117 21.225C47.6817 21.5517 47.845 21.7967 48.1017 21.96C48.3817 22.1467 48.8133 22.2517 49.3967 22.275C50.1433 22.3217 50.9367 22.345 51.7767 22.345C53.27 22.345 54.355 22.31 55.0317 22.24L56.8167 22.1V26.615C55.8833 26.895 54.6 27.0817 52.9667 27.175C52.1733 27.245 51.24 27.28 50.1667 27.28ZM69.0191 10.165C69.5091 9.69833 70.0808 9.37167 70.7341 9.185C71.4108 8.975 72.2391 8.87 73.2191 8.87V14.715C72.1691 14.715 71.3058 14.785 70.6291 14.925C69.9758 15.065 69.4391 15.31 69.0191 15.66V10.165ZM61.0741 9.15H67.5491V27H61.0741V9.15ZM81.6823 2.92H82.2773L85.0423 12.51L81.0173 27H74.0173L81.6823 2.92ZM89.5573 22.73H83.7123L85.1823 17.34H87.9823L83.8523 2.92H90.2573L97.9223 27H90.7823L89.5573 22.73ZM104.976 27.245C102.876 27.245 101.464 26.6033 100.741 25.32C100.414 24.76 100.192 24.0833 100.076 23.29C99.9589 22.4733 99.9006 21.4817 99.9006 20.315V9.15H106.376V17.585C106.376 18.8217 106.387 19.6383 106.411 20.035C106.457 20.6183 106.527 21.0383 106.621 21.295C106.714 21.5517 106.866 21.715 107.076 21.785C107.286 21.8317 107.659 21.855 108.196 21.855H108.546V26.23C107.636 26.9067 106.446 27.245 104.976 27.245ZM110.016 9.15H116.491V27H110.016V9.15ZM119.113 9.15H122.403V3.97H128.878V9.15H132.798V14.085H119.113V9.15ZM122.403 15.485H128.878V27H122.403V15.485ZM135.415 0.994999H141.89V27H135.415V0.994999ZM145.53 18.565C145.53 17.3283 145.518 16.5117 145.495 16.115C145.448 15.4617 145.39 15.03 145.32 14.82C145.227 14.5867 145.063 14.4467 144.83 14.4C144.597 14.33 144.223 14.295 143.71 14.295H143.36V10.025C144.293 9.27833 145.483 8.905 146.93 8.905C149.03 8.905 150.442 9.54667 151.165 10.83C151.492 11.39 151.713 12.0783 151.83 12.895C151.947 13.6883 152.005 14.6683 152.005 15.835V27H145.53V18.565Z" fill="url(#paint0_linear_2_49)"/>
<defs>
<linearGradient id="paint0_linear_2_49" x1="-2" y1="7" x2="177" y2="7" gradientUnits="userSpaceOnUse">
<stop stop-color="#FB2BFF"/>
<stop offset="1" stop-color="#5649EB"/>
</linearGradient>
</defs>
</svg>
